<svg xmlns="http://www.w3.org/2000/svg" xmlns:xlink="http://www.w3.org/1999/xlink" width="434" zoomAndPan="magnify" viewBox="0 0 325.5 105.749996" height="141" preserveAspectRatio="xMidYMid meet" version="1.0"><defs><g/><clipPath id="7410bde52a"><path d="M 97 0 L 195 0 L 195 83 L 97 83 Z M 97 0 " clip-rule="nonzero"/></clipPath><clipPath id="493d3096ca"><path d="M 203.226562 10.289062 L 180.867188 89.050781 L 87.164062 62.449219 L 109.527344 -16.316406 Z M 203.226562 10.289062 " clip-rule="nonzero"/></clipPath><clipPath id="d18d894ba2"><path d="M 203.226562 10.289062 L 180.867188 89.050781 L 87.164062 62.449219 L 109.527344 -16.316406 Z M 203.226562 10.289062 " clip-rule="nonzero"/></clipPath><clipPath id="154501c657"><path d="M 139 31 L 228 31 L 228 105.5 L 139 105.5 Z M 139 31 " clip-rule="nonzero"/></clipPath><clipPath id="af403fda6c"><path d="M 205.527344 22.75 L 238.390625 91.925781 L 156.46875 130.84375 L 123.605469 61.671875 Z M 205.527344 22.75 " clip-rule="nonzero"/></clipPath><clipPath id="3c7df9f612"><path d="M 205.527344 22.75 L 238.390625 91.925781 L 156.46875 130.84375 L 123.605469 61.671875 Z M 205.527344 22.75 " clip-rule="nonzero"/></clipPath><clipPath id="4ed9073526"><path d="M 144 37 L 222 37 L 222 105 L 144 105 Z M 144 37 " clip-rule="nonzero"/></clipPath><clipPath id="1f0f19342b"><path d="M 202.414062 29.765625 L 231.035156 90.011719 L 159.632812 123.933594 L 131.007812 63.6875 Z M 202.414062 29.765625 " clip-rule="nonzero"/></clipPath><clipPath id="e74bbcd572"><path d="M 202.414062 29.765625 L 231.035156 90.011719 L 159.632812 123.933594 L 131.007812 63.6875 Z M 202.414062 29.765625 " clip-rule="nonzero"/></clipPath></defs><g clip-path="url(#7410bde52a)"><g clip-path="url(#493d3096ca)"><g clip-path="url(#d18d894ba2)"><path fill="#016d41" d="M 177.671875 75.140625 C 183.957031 69.460938 188.929688 60.648438 192.050781 49.65625 C 195.171875 38.667969 195.570312 28.558594 193.207031 20.421875 C 190.515625 11.160156 184.375 4.925781 175.445312 2.390625 C 166.71875 -0.0859375 149.449219 0.761719 132.472656 4.496094 C 123.894531 6.386719 116.363281 8.839844 110.695312 11.59375 C 103.695312 14.992188 99.542969 18.851562 98.347656 23.054688 C 97.15625 27.261719 98.660156 32.722656 102.832031 39.292969 C 106.207031 44.613281 111.324219 50.660156 117.628906 56.773438 C 130.109375 68.875 144.359375 78.671875 153.085938 81.148438 C 162.015625 83.683594 170.515625 81.605469 177.671875 75.140625 Z M 177.671875 75.140625 " fill-opacity="1" fill-rule="nonzero"/></g></g></g><g clip-path="url(#154501c657)"><g clip-path="url(#af403fda6c)"><g clip-path="url(#3c7df9f612)"><path fill="#ffffff" d="M 227.589844 84.101562 C 228.488281 76.238281 226.542969 66.980469 221.957031 57.328125 C 217.371094 47.675781 211.425781 40.316406 204.761719 36.046875 C 197.175781 31.183594 189.039062 30.574219 181.234375 34.285156 C 173.601562 37.910156 162.042969 49.128906 152.472656 62.203125 C 147.632812 68.808594 143.878906 75.167969 141.609375 80.589844 C 138.808594 87.289062 138.277344 92.554688 140.03125 96.25 C 141.785156 99.941406 146.203125 102.859375 153.164062 104.917969 C 158.804688 106.585938 166.105469 107.691406 174.28125 108.113281 C 190.464844 108.949219 206.464844 107.078125 214.09375 103.453125 C 221.902344 99.742188 226.566406 93.054688 227.589844 84.101562 Z M 227.589844 84.101562 " fill-opacity="1" fill-rule="nonzero"/></g></g></g><g fill="#ffffff" fill-opacity="1"><g transform="translate(113.698805, 49.287811)"><g><path d="M 3.265625 -33.84375 C 4.140625 -34.71875 5.179688 -35.15625 6.390625 -35.15625 C 7.609375 -35.15625 8.65625 -34.71875 9.53125 -33.84375 C 10.40625 -32.96875 10.84375 -31.921875 10.84375 -30.703125 C 10.84375 -29.492188 10.40625 -28.453125 9.53125 -27.578125 C 8.65625 -26.703125 7.609375 -26.265625 6.390625 -26.265625 C 5.179688 -26.265625 4.140625 -26.703125 3.265625 -27.578125 C 2.390625 -28.453125 1.953125 -29.492188 1.953125 -30.703125 C 1.953125 -31.921875 2.390625 -32.96875 3.265625 -33.84375 Z M 2.546875 -21.734375 L 2.546875 0 L 10.046875 0 L 10.046875 -21.734375 Z M 2.546875 -21.734375 "/></g></g></g><g fill="#ffffff" fill-opacity="1"><g transform="translate(126.490878, 49.287811)"><g><path d="M 2.546875 0 L 2.546875 -21.734375 L 10.046875 -21.734375 L 10.046875 -19.4375 L 10.125 -19.4375 C 12.070312 -21.382812 14.144531 -22.359375 16.34375 -22.359375 C 17.414062 -22.359375 18.484375 -22.21875 19.546875 -21.9375 C 20.609375 -21.65625 21.625 -21.21875 22.59375 -20.625 C 23.570312 -20.03125 24.363281 -19.191406 24.96875 -18.109375 C 25.570312 -17.023438 25.875 -15.757812 25.875 -14.3125 L 25.875 0 L 18.390625 0 L 18.390625 -12.28125 C 18.390625 -13.414062 18.023438 -14.40625 17.296875 -15.25 C 16.578125 -16.09375 15.640625 -16.515625 14.484375 -16.515625 C 13.359375 -16.515625 12.335938 -16.078125 11.421875 -15.203125 C 10.503906 -14.328125 10.046875 -13.351562 10.046875 -12.28125 L 10.046875 0 Z M 2.546875 0 "/></g></g></g><g clip-path="url(#4ed9073526)"><g clip-path="url(#1f0f19342b)"><g clip-path="url(#e74bbcd572)"><path fill="#5e6835" d="M 221.625 83.203125 C 222.410156 76.351562 220.714844 68.289062 216.71875 59.878906 C 212.726562 51.472656 207.546875 45.0625 201.738281 41.347656 C 195.132812 37.113281 188.042969 36.585938 181.238281 39.816406 C 174.585938 42.976562 164.511719 52.75 156.167969 64.140625 C 151.949219 69.898438 148.675781 75.4375 146.695312 80.164062 C 144.253906 85.996094 143.789062 90.585938 145.316406 93.800781 C 146.847656 97.019531 150.695312 99.558594 156.761719 101.351562 C 161.675781 102.800781 168.039062 103.761719 175.164062 104.128906 C 189.265625 104.855469 203.207031 103.21875 209.859375 100.0625 C 216.664062 96.828125 220.730469 91 221.625 83.203125 Z M 221.625 83.203125 " fill-opacity="1" fill-rule="nonzero"/></g></g></g><g fill="#ffffff" fill-opacity="1"><g transform="translate(157.718129, 91.526288)"><g><path d="M 13.128906 -22.871094 C 13.128906 -23.164062 12.953125 -23.335938 12.660156 -23.335938 L 1.925781 -23.335938 C 1.605469 -23.335938 1.457031 -23.164062 1.457031 -22.871094 L 1.457031 -0.464844 C 1.457031 -0.175781 1.605469 0 1.925781 0 L 4.960938 0 C 5.25 0 5.425781 -0.175781 5.425781 -0.464844 L 5.425781 -9.773438 L 10.910156 -9.773438 C 11.203125 -9.773438 11.375 -9.917969 11.375 -10.238281 L 11.375 -13.15625 C 11.375 -13.449219 11.203125 -13.625 10.910156 -13.625 L 5.425781 -13.625 L 5.425781 -19.488281 L 12.660156 -19.488281 C 12.953125 -19.488281 13.128906 -19.660156 13.128906 -19.953125 Z M 13.128906 -22.871094 "/></g></g></g><g fill="#ffffff" fill-opacity="1"><g transform="translate(172.295214, 91.526288)"><g><path d="M 1.457031 -4.199219 C 1.457031 -1.457031 2.917969 0 5.660156 0 L 8.925781 0 C 11.667969 0 13.128906 -1.457031 13.128906 -4.199219 L 13.128906 -16.21875 C 13.128906 -18.960938 11.667969 -20.421875 8.925781 -20.421875 L 5.660156 -20.421875 C 2.917969 -20.421875 1.457031 -18.960938 1.457031 -16.21875 Z M 6.417969 -3.761719 C 5.660156 -3.761719 5.25 -4.140625 5.25 -4.929688 L 5.25 -15.488281 C 5.25 -16.25 5.660156 -16.65625 6.417969 -16.65625 L 8.285156 -16.65625 C 9.042969 -16.65625 9.453125 -16.25 9.453125 -15.488281 L 9.453125 -4.929688 C 9.453125 -4.140625 9.042969 -3.761719 8.285156 -3.761719 Z M 6.417969 -3.761719 "/></g></g></g><g fill="#ffffff" fill-opacity="1"><g transform="translate(186.8723, 91.526288)"><g><path d="M 1.457031 -4.199219 C 1.457031 -1.457031 2.917969 0 5.660156 0 L 8.925781 0 C 11.667969 0 13.128906 -1.457031 13.128906 -4.199219 L 13.128906 -16.21875 C 13.128906 -18.960938 11.667969 -20.421875 8.925781 -20.421875 L 5.660156 -20.421875 C 2.917969 -20.421875 1.457031 -18.960938 1.457031 -16.21875 Z M 6.417969 -3.761719 C 5.660156 -3.761719 5.25 -4.140625 5.25 -4.929688 L 5.25 -15.488281 C 5.25 -16.25 5.660156 -16.65625 6.417969 -16.65625 L 8.285156 -16.65625 C 9.042969 -16.65625 9.453125 -16.25 9.453125 -15.488281 L 9.453125 -4.929688 C 9.453125 -4.140625 9.042969 -3.761719 8.285156 -3.761719 Z M 6.417969 -3.761719 "/></g></g></g><g fill="#ffffff" fill-opacity="1"><g transform="translate(201.449385, 91.526288)"><g><path d="M 1.457031 -0.464844 C 1.457031 -0.144531 1.605469 0 1.925781 0 L 8.925781 0 C 11.667969 0 13.128906 -1.457031 13.128906 -4.199219 L 13.128906 -16.191406 C 13.128906 -18.933594 11.667969 -20.421875 8.925781 -20.421875 L 1.925781 -20.421875 C 1.605469 -20.421875 1.457031 -20.246094 1.457031 -19.953125 Z M 5.425781 -3.851562 L 5.425781 -16.570312 L 8.109375 -16.570312 C 8.867188 -16.570312 9.277344 -16.160156 9.277344 -15.375 L 9.277344 -5.015625 C 9.277344 -4.230469 8.867188 -3.851562 8.109375 -3.851562 Z M 5.425781 -3.851562 "/></g></g></g></svg>